<?xml version="1.0" encoding="utf-8"?>
<!-- Generator: Adobe Illustrator 20.1.0, SVG Export Plug-In . SVG Version: 6.00 Build 0)  -->
<svg version="1.1" id="Capa_1" xmlns="http://www.w3.org/2000/svg" xmlns:xlink="http://www.w3.org/1999/xlink" x="0px" y="0px"
	 viewBox="0 0 470 470" style="enable-background:new 0 0 470 470;" xml:space="preserve">
<style type="text/css">
	.st0{fill:#479302;}
</style>
<g>
	<path class="st0" d="M360.8,384.3c1.7-1.4,2.8-3.5,2.8-5.8c0-0.1,0-341,0-341c0-4.1-3.4-7.5-7.5-7.5h-217
		c-5.4-17.4-21.5-30-40.6-30C79.7,0,63.3,12.5,57.9,30h-24c-4.1,0-7.5,3.4-7.5,7.5v425c0,4.1,3.4,7.5,7.5,7.5h238.2
		c2.4,0,4.5-1.1,5.9-2.8L360.8,384.3z M279.6,444.3V386H338L279.6,444.3z M98.5,15c10.7,0,19.9,6.1,24.5,15H74
		C78.6,21.1,88,15,98.5,15z M41.4,45H126v52.5c0,6.9-5.6,12.5-12.5,12.5S101,104.4,101,97.5v-30c0-4.1-3.4-7.5-7.5-7.5
		S86,63.4,86,67.5v30c0,15.2,12.3,27.5,27.5,27.5S141,112.7,141,97.5V45h207.6v326h-76.5c-4.1,0-7.5,3.4-7.5,7.5V455H41.4V45z"/>
	<path class="st0" d="M296.1,345.5c4.1,0,7.5-3.4,7.5-7.5s-3.4-7.5-7.5-7.5H93.9c-4.1,0-7.5,3.4-7.5,7.5s3.4,7.5,7.5,7.5H296.1z"/>
	<path class="st0" d="M93.9,300.5h202.3c4.1,0,7.5-3.4,7.5-7.5s-3.4-7.5-7.5-7.5H93.9c-4.1,0-7.5,3.4-7.5,7.5S89.7,300.5,93.9,300.5
		z"/>
	<path class="st0" d="M93.9,255.5h202.3c4.1,0,7.5-3.4,7.5-7.5s-3.4-7.5-7.5-7.5H93.9c-4.1,0-7.5,3.4-7.5,7.5S89.7,255.5,93.9,255.5
		z"/>
	<path class="st0" d="M93.9,210.5h202.3c4.1,0,7.5-3.4,7.5-7.5s-3.4-7.5-7.5-7.5H93.9c-4.1,0-7.5,3.4-7.5,7.5S89.7,210.5,93.9,210.5
		z"/>
	<path class="st0" d="M93.9,165.5h202.3c4.1,0,7.5-3.4,7.5-7.5s-3.4-7.5-7.5-7.5H93.9c-4.1,0-7.5,3.4-7.5,7.5S89.7,165.5,93.9,165.5
		z"/>
	<path class="st0" d="M396.1,30h-10c-4.1,0-7.5,3.4-7.5,7.5s3.4,7.5,7.5,7.5h2.5v410h-80.1c-4.1,0-7.5,3.4-7.5,7.5s3.4,7.5,7.5,7.5
		h87.6c4.1,0,7.5-3.4,7.5-7.5v-425C403.6,33.4,400.3,30,396.1,30z"/>
	<path class="st0" d="M436.1,30h-10c-4.1,0-7.5,3.4-7.5,7.5s3.4,7.5,7.5,7.5h2.5v410h-2.5c-4.1,0-7.5,3.4-7.5,7.5s3.4,7.5,7.5,7.5
		h10c4.1,0,7.5-3.4,7.5-7.5v-425C443.6,33.4,440.3,30,436.1,30z"/>
</g>
</svg>
