<?xml version="1.0" encoding="utf-8"?>
<!-- Generator: Adobe Illustrator 20.1.0, SVG Export Plug-In . SVG Version: 6.00 Build 0)  -->
<svg version="1.1" id="Capa_1" xmlns="http://www.w3.org/2000/svg" xmlns:xlink="http://www.w3.org/1999/xlink" x="0px" y="0px"
	 viewBox="0 0 294.8 294.8" style="enable-background:new 0 0 294.8 294.8;" xml:space="preserve">
<style type="text/css">
	.st0{fill:#479302;}
</style>
<g>
	<path class="st0" d="M6,40.8c3.3,0,6-2.7,6-6C12,25.5,19.5,18,28.8,18h53.7l42.2,46.1c1.1,1.2,2.7,1.9,4.4,1.9h136.9
		c9.3,0,16.8,7.5,16.8,16.8c0,3.3,2.7,6,6,6s6-2.7,6-6c0-15.9-12.9-28.8-28.8-28.8H131.8L89.5,7.9C88.4,6.7,86.8,6,85.1,6H28.8
		C12.9,6,0,18.9,0,34.8C0,38.1,2.7,40.8,6,40.8z"/>
	<path class="st0" d="M266.1,94.1H131.8L89.5,48c-1.1-1.2-2.7-1.9-4.4-1.9H28.8C12.9,46,0,58.9,0,74.8v118.6c0,3.3,2.7,6,6,6
		s6-2.7,6-6V74.8C12,65.5,19.5,58,28.8,58h53.7l42.2,46.1c1.1,1.2,2.7,1.9,4.4,1.9h136.9c9.3,0,16.8,7.5,16.8,16.8v137.2
		c0,9.3-7.5,16.8-16.8,16.8H28.8c-9.3,0-16.8-7.5-16.8-16.8c0-3.3-2.7-6-6-6s-6,2.7-6,6c0,15.9,12.9,28.8,28.8,28.8h237.3
		c15.9,0,28.8-12.9,28.8-28.8V122.9C294.8,107,281.9,94.1,266.1,94.1z"/>
</g>
</svg>
