<?xml version="1.0" encoding="utf-8"?>
<!-- Generator: Adobe Illustrator 20.1.0, SVG Export Plug-In . SVG Version: 6.00 Build 0)  -->
<svg version="1.1" id="Capa_1" xmlns="http://www.w3.org/2000/svg" xmlns:xlink="http://www.w3.org/1999/xlink" x="0px" y="0px"
	 viewBox="0 0 504.8 504.8" style="enable-background:new 0 0 504.8 504.8;" xml:space="preserve">
<style type="text/css">
	.st0{fill:#287EC2;}
</style>
<g>
	<path class="st0" d="M445.9,324l-22.6-22.6c-2.9-2.9-7.7-2.9-10.6,0L358,356c-2.9,2.9-2.9,7.7,0,10.6l8.4,8.4l-14,14
		c-3.1,3.1-7.3,4.8-11.7,4.8h-27.2V371l116.4-116.4c2.9-2.9,2.9-7.7,0-10.6l-22.6-22.6c-2.9-2.9-7.7-2.9-10.6,0L286.2,331.7
		c-3.9-1.3-8-2-12.3-2c-6.9,0-13.4,1.8-19,4.9c-19.3-6.9-36.6-19.7-48.9-36.3c-13.4-18.1-20.5-39.6-20.5-62.1c0-7.8,0.9-15.5,2.5-23
		c3.4-1.4,6.6-3.2,9.5-5.3l39.8,39.5l0.1,0.1c0.1,0.1,0.2,0.2,0.4,0.3c0.1,0.1,0.2,0.1,0.2,0.2c0.1,0.1,0.2,0.2,0.3,0.3
		s0.2,0.1,0.3,0.2c0.1,0.1,0.2,0.1,0.3,0.2c0.1,0.1,0.2,0.1,0.4,0.2c0.1,0,0.2,0.1,0.3,0.1c0.1,0.1,0.3,0.1,0.4,0.2
		c0.1,0,0.1,0,0.2,0.1l34.4,11.3l15.7,15.7c3,3,7,4.5,11,4.5s7.9-1.5,11-4.5l20.7-20.7c6-6,6-15.9,0-21.9L317.3,218l-10.9-34.8
		c0-0.1-0.1-0.2-0.1-0.3s-0.1-0.3-0.1-0.4c-0.1-0.1-0.1-0.3-0.2-0.4c0-0.1-0.1-0.2-0.1-0.3c-0.1-0.1-0.2-0.3-0.3-0.4
		c0-0.1-0.1-0.1-0.1-0.2c-0.1-0.1-0.2-0.3-0.3-0.4c0-0.1-0.1-0.1-0.1-0.2c-0.1-0.1-0.2-0.3-0.4-0.4l-0.1-0.1l-0.1-0.1l0,0
		L187.1,63.3c-4.4-4.4-10.3-6.9-16.6-6.9c-6.1,0-11.9,2.3-16.3,6.6l-31-31c3.4-8.4,1.7-18.4-5.1-25.1C113.7,2.4,107.9,0,101.7,0l0,0
		c-6.2,0-12,2.4-16.4,6.8L63.5,28.6C59.1,33,56.7,38.8,56.7,45s2.4,12,6.8,16.4C68,66,74,68.2,79.9,68.2c3,0,5.9-0.6,8.7-1.7l31,31
		c-4.2,4.4-6.6,10.2-6.6,16.3c0,6.3,2.4,12.2,6.9,16.6l11.3,11.3c-5.5,7.8-8.8,17.3-8.8,27.5c0,8.3,2.2,16.1,5.9,22.9
		c-3.9,14.4-5.9,29.2-5.9,44c0,36.3,11.5,70.9,33.2,100c19.9,26.6,47.7,47.1,78.8,58.1v55.5h-16.5c-17.4,0-31.5,14.1-31.5,31.5v16
		c0,4.1,3.4,7.5,7.5,7.5h160c4.1,0,7.5-3.4,7.5-7.5v-16c0-17.4-14.1-31.5-31.5-31.5h-16.5v-41h27.2c8.4,0,16.3-3.3,22.3-9.2l14-14
		l3.7,3.7c1.5,1.5,3.4,2.2,5.3,2.2s3.8-0.7,5.3-2.2l54.6-54.6C448.8,331.6,448.8,326.9,445.9,324z M401.9,237.2l12,12L310,353.2
		c-2.4-5.3-5.9-10-10.2-13.8L401.9,237.2z M169.9,201.8c-17.9,0-32.5-14.6-32.5-32.5s14.6-32.5,32.5-32.5s32.5,14.6,32.5,32.5
		S187.9,201.8,169.9,201.8z M295.8,199.6l6.4,20.4l-25.5,25.5l-20.2-6.6L295.8,199.6z M322.5,244.7c0,0.2-0.1,0.3-0.1,0.4
		l-20.7,20.7c-0.2,0.2-0.5,0.2-0.7,0L289.3,254l21.4-21.4l11.7,11.7C322.4,244.3,322.5,244.4,322.5,244.7z M130.2,86.9l-29.7-29.7
		l13.4-13.4l29.7,29.7L130.2,86.9z M74.1,50.8L74.1,50.8c-1.6-1.6-2.4-3.6-2.4-5.8s0.9-4.3,2.4-5.8l21.8-21.8
		c1.6-1.6,3.6-2.4,5.8-2.4s4.3,0.9,5.8,2.4c3.2,3.2,3.2,8.4,0,11.7L85.8,50.8C82.5,54.1,77.3,54.1,74.1,50.8z M128.1,113.8
		c0-2.3,0.9-4.4,2.5-6l33.9-33.9c1.6-1.6,3.7-2.5,6-2.5s4.4,0.9,6,2.5l112.1,111.6l-46,46l-34.4-34.1c5.8-7.9,9.3-17.6,9.3-28.2
		c0-26.2-21.3-47.5-47.5-47.5c-10.5,0-20.3,3.5-28.2,9.3l-11.2-11.2C129,118.2,128.1,116.1,128.1,113.8z M167.7,327.2
		c-19.8-26.5-30.2-58-30.2-91c0-10,1-20,3-29.8c8.1,6.5,18.4,10.3,29.5,10.3c0.7,0,1.4,0,2.1-0.1c-1,6.4-1.6,12.9-1.6,19.5
		c0,25.8,8.1,50.4,23.5,71.1c12.6,17,29.2,30.1,48.3,38.5c-4.9,6.6-7.8,14.7-7.8,23.5v9C208.1,367.9,184.7,350,167.7,327.2z
		 M346.4,481.3v8.5h-145v-8.5c0-9.1,7.4-16.5,16.5-16.5h112C339,464.8,346.4,472.2,346.4,481.3z M249.4,449.8v-60.1
		c0.1-0.5,0.1-1,0-1.5v-18.9c0-13.5,11-24.5,24.5-24.5s24.5,11,24.5,24.5v80.5H249.4z M385.9,373.3l-12-12l44-44l12,12L385.9,373.3z
		"/>
	<path class="st0" d="M169.9,153.8c-8.5,0-15.5,7-15.5,15.5s7,15.5,15.5,15.5s15.5-7,15.5-15.5S178.5,153.8,169.9,153.8z
		 M169.9,169.8c-0.3,0-0.5-0.2-0.5-0.5s0.2-0.5,0.5-0.5s0.5,0.2,0.5,0.5S170.2,169.8,169.9,169.8z"/>
	<path class="st0" d="M273.9,361.8c-2,0-3.9,0.8-5.3,2.2c-1.4,1.4-2.2,3.3-2.2,5.3s0.8,3.9,2.2,5.3c1.4,1.4,3.3,2.2,5.3,2.2
		s3.9-0.8,5.3-2.2c1.4-1.4,2.2-3.3,2.2-5.3s-0.8-3.9-2.2-5.3C277.9,362.6,275.9,361.8,273.9,361.8z"/>
</g>
</svg>
