<?xml version="1.0" encoding="utf-8"?>
<!-- Generator: Adobe Illustrator 20.1.0, SVG Export Plug-In . SVG Version: 6.00 Build 0)  -->
<svg version="1.1" id="Capa_1" xmlns="http://www.w3.org/2000/svg" xmlns:xlink="http://www.w3.org/1999/xlink" x="0px" y="0px"
	 viewBox="0 0 490 490" style="enable-background:new 0 0 490 490;" xml:space="preserve">
<style type="text/css">
	.st0{fill:#479302;}
</style>
<g>
	<path class="st0" d="M439.3,163.2c-9-16.6-19.9-31.7-32.4-45.1l23.2-28.8c3.5-4.3,2.8-10.6-1.5-14.1c-4.3-3.5-10.6-2.8-14.1,1.5
		l-22,27.3c-27.6-24.7-61.2-42.2-97.6-50.6V10c0-5.5-4.5-10-10-10h-75.1c-5.5,0-10,4.5-10,10v42.3c-21,4.4-41.5,11.9-60.5,22.2
		c-15.2,8.3-29.2,18.2-41.9,29.4l-22-27.3c-3.5-4.3-9.8-5-14.1-1.5c-4.3,3.5-5,9.8-1.5,14.1L83.1,118
		c-23.1,24.8-40.3,54.7-50.2,88.2c-16.7,56.7-10.4,116.4,17.8,168.3C89.5,445.7,164,490,245.2,490c36.6,0,73.1-9.3,105.5-26.9
		c34.7-18.9,63.8-46.7,84-80.5c19.6-32.8,30.5-70.3,31.4-108.4C467.1,235.6,457.8,197.2,439.3,163.2z M219.8,20h55.1v29.7
		c-9.9-1.4-19.9-2-30.1-2c-8.4,0-16.7,0.5-25,1.5V20z M446.2,273.7c-1.8,71.7-42,137.6-105,171.8c-29.5,16-62.6,24.5-95.9,24.5
		c-73.9,0-141.6-40.3-176.9-105.1c-53-97.4-16.8-219.8,80.6-272.8c29.4-16,62.6-24.5,95.9-24.5c73.9,0,141.6,40.3,176.9,105.1
		C438.6,203.7,447,238.6,446.2,273.7z"/>
	<path class="st0" d="M249.9,116.6c0.1,0,0.2,0,0.3,0c5.4,0,9.8-4.3,10-9.7l0.2-5.4c0.2-5.5-4.2-10.1-9.7-10.3
		c-5.5-0.2-10.1,4.2-10.3,9.7l-0.2,5.4C240,111.8,244.4,116.4,249.9,116.6z"/>
	<path class="st0" d="M159.6,130.4c1.8,3.4,5.3,5.3,8.8,5.3c1.6,0,3.2-0.4,4.7-1.2c4.9-2.6,6.7-8.7,4.1-13.5l-2.6-4.8
		c-2.6-4.9-8.7-6.7-13.5-4.1c-4.9,2.6-6.7,8.7-4.1,13.5L159.6,130.4z"/>
	<path class="st0" d="M112.4,174.7l-4.6-2.9c-4.7-2.9-10.9-1.5-13.8,3.2c-2.9,4.7-1.5,10.9,3.2,13.8l4.6,2.9c1.6,1,3.5,1.5,5.3,1.5
		c3.3,0,6.6-1.7,8.5-4.7C118.5,183.8,117.1,177.6,112.4,174.7z"/>
	<path class="st0" d="M92.8,264c0.2-5.5-4.2-10.1-9.7-10.3l-5.4-0.2c-5.5-0.2-10.1,4.2-10.3,9.7c-0.2,5.5,4.2,10.1,9.7,10.3l5.4,0.2
		c0.1,0,0.2,0,0.3,0C88.2,273.6,92.6,269.4,92.8,264z"/>
	<path class="st0" d="M97.2,336.6l-4.8,2.6c-4.9,2.6-6.7,8.7-4.1,13.5c1.8,3.4,5.3,5.3,8.8,5.3c1.6,0,3.2-0.4,4.7-1.2l4.8-2.6
		c4.9-2.6,6.7-8.7,4.1-13.5C108.1,335.9,102.1,334,97.2,336.6z"/>
	<path class="st0" d="M164.7,398.2c-4.7-2.9-10.9-1.5-13.8,3.2l-2.9,4.6c-2.9,4.7-1.5,10.9,3.2,13.8c1.6,1,3.5,1.5,5.3,1.5
		c3.3,0,6.6-1.7,8.5-4.7l2.9-4.6C170.8,407.3,169.4,401.2,164.7,398.2z"/>
	<path class="st0" d="M240.2,421.1c-5.5-0.2-10.1,4.2-10.3,9.7l-0.2,5.4c-0.2,5.5,4.2,10.1,9.7,10.3c0.1,0,0.2,0,0.3,0
		c5.4,0,9.8-4.3,10-9.7l0.2-5.4C250,425.9,245.7,421.2,240.2,421.1z"/>
	<path class="st0" d="M330.5,407.2c-2.6-4.9-8.7-6.7-13.5-4.1c-4.9,2.6-6.7,8.7-4.1,13.5l2.6,4.8c1.8,3.4,5.3,5.3,8.8,5.3
		c1.6,0,3.2-0.4,4.7-1.2c4.9-2.6,6.7-8.7,4.1-13.5L330.5,407.2z"/>
	<path class="st0" d="M392.9,348.8l-4.6-2.9c-4.7-2.9-10.9-1.5-13.8,3.2c-2.9,4.7-1.5,10.9,3.2,13.8l4.6,2.9c1.6,1,3.5,1.5,5.3,1.5
		c3.3,0,6.6-1.7,8.5-4.7C399,357.9,397.6,351.7,392.9,348.8z"/>
	<path class="st0" d="M413.1,264.2l-5.4-0.2c-5.5-0.2-10.1,4.2-10.3,9.7c-0.2,5.5,4.2,10.1,9.7,10.3l5.4,0.2c0.1,0,0.2,0,0.3,0
		c5.4,0,9.8-4.3,10-9.7C422.9,269,418.6,264.3,413.1,264.2z"/>
	<path class="st0" d="M388.1,202.2c1.6,0,3.2-0.4,4.7-1.2l4.8-2.6c4.9-2.6,6.7-8.7,4.1-13.5c-2.6-4.9-8.7-6.7-13.5-4.1l-4.8,2.6
		c-4.9,2.6-6.7,8.7-4.1,13.5C381.1,200.3,384.6,202.2,388.1,202.2z"/>
	<path class="st0" d="M338.8,117.8c-4.7-2.9-10.9-1.5-13.8,3.2l-2.9,4.6c-2.9,4.7-1.5,10.9,3.2,13.8c1.6,1,3.5,1.5,5.3,1.5
		c3.3,0,6.6-1.7,8.5-4.7l2.9-4.6C344.9,126.8,343.5,120.7,338.8,117.8z"/>
	<path class="st0" d="M260.8,242.6c-4.9-3-10.6-4.6-16.4-4.6c-7.6,0-14.9,2.8-20.5,7.5l-77-48.9c-4.7-3-10.8-1.6-13.8,3.1
		c-3,4.7-1.6,10.8,3.1,13.8l77.3,49c-1.1,4.8-1.1,9.9,0.1,14.9c2,8.2,7.2,15.2,14.5,19.6c4.9,3,10.6,4.6,16.4,4.6
		c11.1,0,21.5-5.9,27.3-15.4C280.7,271.2,275.9,251.6,260.8,242.6z M254.5,275.9c-2.2,3.6-5.9,5.7-10.1,5.7c-2.1,0-4.2-0.6-6.1-1.7
		c-2.7-1.6-4.6-4.2-5.4-7.3c-0.8-3.1-0.3-6.2,1.3-8.9c2.2-3.6,5.9-5.7,10.1-5.7c2.1,0,4.2,0.6,6.1,1.7
		C256.1,263.1,257.9,270.3,254.5,275.9z"/>
</g>
</svg>
