<?xml version="1.0" encoding="utf-8"?>
<!-- Generator: Adobe Illustrator 20.1.0, SVG Export Plug-In . SVG Version: 6.00 Build 0)  -->
<svg version="1.1" id="Capa_1" xmlns="http://www.w3.org/2000/svg" xmlns:xlink="http://www.w3.org/1999/xlink" x="0px" y="0px"
	 viewBox="0 0 512 512" style="enable-background:new 0 0 512 512;" xml:space="preserve">
<style type="text/css">
	.st0{fill:#479302;}
</style>
<g>
	<path class="st0" d="M480,128H48c0-22.1-17.9-40-40-40c-4.4,0-8,3.6-8,8s3.6,8,8,8c13.2,0,24,10.8,24,24v288c0,4.4,3.6,8,8,8
		s8-3.6,8-8v-8h16c13.2,0,24-10.8,24-24v0h392c17.6,0,32-14.4,32-32V160C512,142.4,497.6,128,480,128z M496,352c0,8.8-7.2,16-16,16
		H80c-4.4,0-8,3.6-8,8v8c0,4.4-3.6,8-8,8H48V144h432c8.8,0,16,7.2,16,16V352z"/>
	<path class="st0" d="M240,192c-22.9,0-43.1,12.1-54.4,30.3c-0.8,0.8-1.4,1.9-1.7,3c-5,9.1-7.9,19.6-7.9,30.8
		c0,11.4,3,22.1,8.3,31.4c0.2,0.4,0.4,0.8,0.7,1.1c11.2,18.8,31.7,31.5,55.1,31.5c35.3,0,64-28.7,64-64c0-11.4-3-22.1-8.3-31.4
		c-0.2-0.4-0.4-0.8-0.7-1.1C283.9,204.6,263.4,192,240,192z M192,256c0-4.4,0.6-8.6,1.7-12.7c3.6,3.2,8.5,6.7,15,10.5
		c6.4,3.7,11.7,6.1,16.2,7.6c-2.6,2.1-6,4.4-10.2,6.8c-8.4,4.9-14.8,7-18.4,7.8C193.6,269.9,192,263.1,192,256z M288,256
		c0,4.1-0.5,8.1-1.5,11.9c-3.6-3.2-8.5-6.8-15.3-10.7c-6-3.4-11-5.8-15.3-7.3c2.5-1.9,5.6-4,9.3-6.1c8.4-4.9,14.8-7,18.4-7.8
		C286.4,242.1,288,248.9,288,256z M273.9,222.1c-4.6,1.5-10.1,4-16.7,7.8c-6.3,3.6-11,7-14.5,10.1c-0.4-3.2-0.8-7.2-0.8-11.9
		c0-9.8,1.3-16.4,2.5-19.8C255.9,209.3,266.2,214.4,273.9,222.1z M227.6,209.6c-1,4.7-1.6,10.7-1.6,18.4c0,7.1,0.6,12.7,1.4,17.3
		c-3-1.2-6.6-2.9-10.6-5.3c-8.3-4.8-13.3-9.2-15.8-11.9C207.4,219.2,216.7,212.5,227.6,209.6z M206,289.9c4.6-1.5,10.1-4,16.7-7.8
		c6.3-3.6,11-7,14.5-10.1c0.4,3.2,0.8,7.2,0.8,11.9c0,9.8-1.3,16.4-2.5,19.8C224.1,302.7,213.8,297.6,206,289.9z M252.4,302.4
		c1-4.7,1.6-10.7,1.6-18.4c0-7.6-0.7-13.6-1.6-18.3c3.1,1.2,6.7,3,10.9,5.4c8.8,5.1,13.9,9.7,16.2,12.3
		C273,292.5,263.5,299.4,252.4,302.4z"/>
	<path class="st0" d="M440,168c-4.4,0-8,3.6-8,8s3.6,8,8,8c8.8,0,16,7.2,16,16v112c0,8.8-7.2,16-16,16H240c-39.7,0-72-32.3-72-72
		s32.3-72,72-72h168c4.4,0,8-3.6,8-8s-3.6-8-8-8H240c-48.5,0-88,39.5-88,88s39.5,88,88,88h200c17.6,0,32-14.4,32-32V200
		C472,182.4,457.6,168,440,168z"/>
	<path class="st0" d="M112,232H88c-8.8,0-16,7.2-16,16v16c0,8.8,7.2,16,16,16h24c8.8,0,16-7.2,16-16v-16
		C128,239.2,120.8,232,112,232z M88,264v-16h24l0,16H88z"/>
	<path class="st0" d="M112,176H88c-8.8,0-16,7.2-16,16v16c0,8.8,7.2,16,16,16h24c8.8,0,16-7.2,16-16v-16
		C128,183.2,120.8,176,112,176z M88,208v-16h24l0,16H88z"/>
	<path class="st0" d="M112,288H88c-8.8,0-16,7.2-16,16v16c0,8.8,7.2,16,16,16h24c8.8,0,16-7.2,16-16v-16
		C128,295.2,120.8,288,112,288z M88,320v-16h24l0,16H88z"/>
	<path class="st0" d="M432,200h-24c-4.4,0-8,3.6-8,8s3.6,8,8,8h24c4.4,0,8-3.6,8-8S436.4,200,432,200z"/>
	<path class="st0" d="M432,296h-24c-4.4,0-8,3.6-8,8s3.6,8,8,8h24c4.4,0,8-3.6,8-8S436.4,296,432,296z"/>
	<path class="st0" d="M432,224h-24c-4.4,0-8,3.6-8,8s3.6,8,8,8h24c4.4,0,8-3.6,8-8S436.4,224,432,224z"/>
	<path class="st0" d="M432,248h-24c-4.4,0-8,3.6-8,8c0,4.4,3.6,8,8,8h24c4.4,0,8-3.6,8-8C440,251.6,436.4,248,432,248z"/>
	<path class="st0" d="M432,272h-24c-4.4,0-8,3.6-8,8s3.6,8,8,8h24c4.4,0,8-3.6,8-8S436.4,272,432,272z"/>
</g>
</svg>
