<svg xmlns="http://www.w3.org/2000/svg" viewBox="0 0 191.52 46.29"><defs><style>.cls-1,.cls-3{fill:none;stroke-miterlimit:10;stroke-width:2px;}.cls-1{stroke:#fef6f6;}.cls-2{fill:#fef6f6;}.cls-3{stroke:#fac5c9;}.cls-4{fill:#f04b57;}.cls-5{fill:#f26c77;}.cls-6{fill:#f58f97;}.cls-7{fill:#f8b2b8;}.cls-8{font-size:18px;fill:#ed1c24;font-family:Athelas-Regular, Athelas;letter-spacing:-0.03em;}.cls-9{letter-spacing:-0.02em;}.cls-10{letter-spacing:-0.12em;}.cls-11{letter-spacing:-0.07em;}.cls-12{letter-spacing:-0.02em;}</style></defs><title>Ресурс 3</title><g id="Слой_2" data-name="Слой 2"><g id="Слой_2-2" data-name="Слой 2"><rect class="cls-1" x="1.87" y="1" width="43.54" height="43.54"/><rect class="cls-2" x="5.18" y="4.31" width="37.26" height="37.26"/><path class="cls-3" d="M25.07,1.5l6.72,7.05a4.52,4.52,0,0,1-.06,6.3L23.9,22.77l-7.73-8.18a4.53,4.53,0,0,1,0-6.24L22.72,1.5A1.63,1.63,0,0,1,25.07,1.5Z"/><path class="cls-4" d="M23.91,19.53l6-6.65a2.11,2.11,0,0,0,0-2.73l-5.65-6a.5.5,0,0,0-.73,0l-5.47,5.94a2.26,2.26,0,0,0,0,2.89Z"/><path class="cls-3" d="M1.5,22.75,8.56,16a4.52,4.52,0,0,1,6.3.06l7.91,7.83-8.18,7.73a4.53,4.53,0,0,1-6.24,0L1.5,25.1A1.63,1.63,0,0,1,1.5,22.75Z"/><path class="cls-5" d="M19.53,23.91l-6.65-6a2.11,2.11,0,0,0-2.73,0l-6,5.65a.5.5,0,0,0,0,.73l5.94,5.47a2.26,2.26,0,0,0,2.89,0Z"/><path class="cls-3" d="M22.55,44.79l-6.72-7.05a4.52,4.52,0,0,1,.06-6.3l7.83-7.91,7.73,8.18a4.53,4.53,0,0,1,0,6.24L24.9,44.79A1.63,1.63,0,0,1,22.55,44.79Z"/><path class="cls-6" d="M23.71,26.77l-6,6.65a2.11,2.11,0,0,0,0,2.73l5.65,6a.5.5,0,0,0,.73,0l5.47-5.94a2.26,2.26,0,0,0,0-2.89Z"/><path class="cls-3" d="M45.25,24.61l-7.05,6.72a4.52,4.52,0,0,1-6.3-.06L24,23.44l8.18-7.73a4.53,4.53,0,0,1,6.24,0l6.85,6.54A1.63,1.63,0,0,1,45.25,24.61Z"/><path class="cls-7" d="M27.23,23.45l6.65,6a2.11,2.11,0,0,0,2.73,0l6-5.65a.5.5,0,0,0,0-.73L36.68,17.6a2.26,2.26,0,0,0-2.89,0Z"/><text class="cls-8" transform="translate(54.02 29.93)">C<tspan class="cls-9" x="11.48" y="0">OM</tspan><tspan class="cls-10" x="40.59" y="0">P</tspan><tspan class="cls-9" x="48.55" y="0">ANY </tspan><tspan class="cls-11" x="87.21" y="0">N</tspan><tspan class="cls-12" x="98.91" y="0">AME</tspan></text></g></g></svg>