<svg xmlns="http://www.w3.org/2000/svg" viewBox="0 0 248.23 58"><defs><style>.cls-1{fill:#287ec2;}.cls-2{fill:#8dc63f;}.cls-3{fill:#8cc63f;}</style></defs><title>Ресурс 1</title><g id="Слой_2" data-name="Слой 2"><g id="Слой_2-2" data-name="Слой 2"><path class="cls-1" d="M80.45,30.41l3.21,1a7.2,7.2,0,0,1-2.46,4,7.72,7.72,0,0,1-9.72-.93,8.54,8.54,0,0,1-2.1-6.1A9,9,0,0,1,71.49,22a7.25,7.25,0,0,1,5.56-2.26,6.82,6.82,0,0,1,4.89,1.78,6.46,6.46,0,0,1,1.68,3l-3.28.78a3.39,3.39,0,0,0-3.46-2.75,3.73,3.73,0,0,0-3,1.31,6.42,6.42,0,0,0-1.13,4.24q0,3.11,1.12,4.43a3.63,3.63,0,0,0,2.91,1.32,3.31,3.31,0,0,0,2.27-.84A4.86,4.86,0,0,0,80.45,30.41Z"/><path class="cls-1" d="M85.26,28.34a10.43,10.43,0,0,1,.75-4.2,7.73,7.73,0,0,1,1.53-2.25,6.38,6.38,0,0,1,2.12-1.48,9,9,0,0,1,3.53-.65A7.7,7.7,0,0,1,99,22a8.62,8.62,0,0,1,2.17,6.25A8.59,8.59,0,0,1,99,34.48a7.64,7.64,0,0,1-5.77,2.24,7.71,7.71,0,0,1-5.81-2.23A8.47,8.47,0,0,1,85.26,28.34Zm3.41-.11A6.14,6.14,0,0,0,90,32.45a4.42,4.42,0,0,0,6.51,0,6.27,6.27,0,0,0,1.27-4.28A6.17,6.17,0,0,0,96.5,24a4.58,4.58,0,0,0-6.58,0A6.19,6.19,0,0,0,88.67,28.23Z"/><path class="cls-1" d="M103.12,36.44V20h5l3,11.18L114,20h5V36.44h-3.07V23.54l-3.25,12.9h-3.19l-3.24-12.9v12.9Z"/><path class="cls-1" d="M121.67,36.44V20H127a19.3,19.3,0,0,1,3.94.25,4.3,4.3,0,0,1,2.36,1.6,5.09,5.09,0,0,1,1,3.19,5.35,5.35,0,0,1-.55,2.54,4.5,4.5,0,0,1-1.39,1.62,4.8,4.8,0,0,1-1.72.78,18.87,18.87,0,0,1-3.43.23H125v6.18ZM125,22.82v4.65h1.81a8.56,8.56,0,0,0,2.62-.26,2.18,2.18,0,0,0,1-.81,2.21,2.21,0,0,0,.37-1.27,2.12,2.12,0,0,0-.53-1.48,2.29,2.29,0,0,0-1.33-.73,15.87,15.87,0,0,0-2.38-.11Z"/><path class="cls-1" d="M149.46,36.44h-3.6l-1.43-3.72h-6.55l-1.35,3.72H133L139.39,20h3.5ZM143.36,30l-2.26-6.08L138.89,30Z"/><path class="cls-1" d="M150.67,36.44V20h3.22L160.6,31V20h3.08V36.44h-3.32l-6.61-10.69V36.44Z"/><path class="cls-1" d="M170.91,36.44v-6.9l-6-9.49h3.88l3.86,6.49L176.42,20h3.81l-6,9.52v6.88Z"/><path class="cls-2" d="M186.76,36.44V20H189l8.61,12.87V20h2.08V36.44h-2.23l-8.61-12.88V36.44Z"/><path class="cls-2" d="M200.95,36.44,207.24,20h2.34l6.71,16.39h-2.47l-1.91-5h-6.85l-1.8,5Zm4.73-6.73h5.56l-1.71-4.54q-.78-2.07-1.16-3.4a20.84,20.84,0,0,1-.88,3.13Z"/><path class="cls-2" d="M217.38,36.44V20h3.27l3.88,11.61q.54,1.62.78,2.43.28-.89.87-2.63L230.11,20H233V36.44h-2.09V22.72l-4.76,13.72h-2l-4.74-14v14Z"/><path class="cls-2" d="M236,36.44V20h11.85V22h-9.68v5h9.07v1.92h-9.07V34.5h10.06v1.93Z"/><path class="cls-3" d="M56.78,20.56V52.33A5.67,5.67,0,0,1,51.11,58h-21C30.08,47,36.36,27.63,56.78,20.56Z"/><path class="cls-1" d="M56.78,37.44V5.67A5.67,5.67,0,0,0,51.11,0h-21C30.08,11,36.36,30.37,56.78,37.44Z"/><path class="cls-3" d="M0,37.44V5.67A5.67,5.67,0,0,1,5.67,0h21C26.7,11,20.42,30.37,0,37.44Z"/><path class="cls-1" d="M0,20.56V52.33A5.67,5.67,0,0,0,5.67,58h21C26.7,47,20.42,27.63,0,20.56Z"/></g></g></svg>